<svg xmlns="http://www.w3.org/2000/svg" width="165.045" height="29.656" viewBox="0 0 165.045 29.656">
  <g id="g63" transform="translate(-51.193 243.935)">
    <path id="path2137" d="M131.474-158.079c.1.011.2.02.287.028s.177.013.258.017C131.858-158.043,131.674-158.057,131.474-158.079Z" transform="translate(-66.436 -71.05)" fill="#bfbfbf" fill-rule="evenodd"/>
    <path id="path2135" d="M127.818-158.228c.109.021.216.04.322.056s.209.029.309.04C128.249-158.154,128.036-158.185,127.818-158.228Z" transform="translate(-63.411 -70.927)" fill="#bfbfbf" fill-rule="evenodd"/>
    <path id="path2133" d="M124.271-158.366q.151.041.3.077t.308.066Q124.573-158.283,124.271-158.366Z" transform="translate(-60.475 -70.812)" fill="#bfbfbf" fill-rule="evenodd"/>
    <path id="path2131" d="M120.832-158.494q.146.052.294.1t.3.089Q121.124-158.39,120.832-158.494Z" transform="translate(-57.629 -70.706)" fill="#bfbfbf" fill-rule="evenodd"/>
    <path id="path2129" d="M117.509-158.617q.141.063.284.12t.289.11Q117.791-158.492,117.509-158.617Z" transform="translate(-54.88 -70.605)" fill="#bfbfbf" fill-rule="evenodd"/>
    <path id="path2127" d="M114.312-158.734q.135.072.273.14t.279.13Q114.582-158.589,114.312-158.734Z" transform="translate(-52.234 -70.508)" fill="#bfbfbf" fill-rule="evenodd"/>
    <path id="path2125" d="M66.007-243.935l-1.607.086a14.834,14.834,0,0,0-13.136,13.136,18.114,18.114,0,0,0,0,3.213,14.84,14.84,0,0,0,9.813,12.379c.068.024.135.05.2.073q.3.1.6.189t.615.163q.31.075.625.137t.634.111q.319.049.643.084c.221.024.477.041.751.053l.1,0h1.038q.092,0,.178-.005t.167-.017c.054-.007.105-.016.155-.027s.1-.024.144-.038a1.4,1.4,0,0,0,.132-.049,1.221,1.221,0,0,0,.121-.06,1.107,1.107,0,0,0,.109-.071,1.029,1.029,0,0,0,.1-.082,1.014,1.014,0,0,0,.086-.093,1.046,1.046,0,0,0,.075-.1,1.119,1.119,0,0,0,.063-.115,1.254,1.254,0,0,0,.052-.126c.015-.044.029-.089.04-.137s.021-.1.029-.148.013-.1.017-.159.006-.111.006-.17c0-.5.006-.984.01-1.47v-2.206a1.369,1.369,0,0,0-.271-.844,1.308,1.308,0,0,0-.194-.2,1.41,1.41,0,0,0-.235-.162,1.568,1.568,0,0,0-.271-.116,1.759,1.759,0,0,0-.3-.068,1.976,1.976,0,0,0-.323-.018c-.046,0-.27.006-.591-.011-.08,0-.166-.01-.258-.017s-.187-.016-.287-.028-.2-.024-.309-.04-.213-.034-.322-.056-.206-.042-.308-.066-.2-.05-.3-.077-.2-.057-.3-.089-.2-.064-.294-.1-.193-.071-.289-.11-.19-.079-.284-.12-.187-.085-.279-.13-.183-.092-.273-.14-.179-.1-.266-.15-.175-.1-.261-.159a8.317,8.317,0,0,1-3.7-5.416,10.106,10.106,0,0,1,0-3.2,8.319,8.319,0,0,1,6.557-6.557,10.106,10.106,0,0,1,3.2,0,8.319,8.319,0,0,1,6.557,6.557,20.212,20.212,0,0,1,.154,3.209v11.609a1.61,1.61,0,0,0,1.61,1.61h3.321a1.607,1.607,0,0,0,1.138-.472,1.607,1.607,0,0,0,.47-1.138L80.837-227.5c0-.889.007-2.333-.088-3.216a14.834,14.834,0,0,0-13.136-13.136,14.951,14.951,0,0,0-1.607-.086Z" transform="translate(0 0)" fill="#bfbfbf" fill-rule="evenodd"/>
    <path id="path2125-2" d="M851.053-243.935l-1.607.086a14.834,14.834,0,0,0-13.136,13.136,18.117,18.117,0,0,0,0,3.213,14.841,14.841,0,0,0,9.813,12.379c.068.024.134.05.2.073q.3.1.6.189t.615.163q.31.075.625.137t.634.111q.32.049.643.084c.221.024.477.041.751.053l.1,0h1.038q.092,0,.178-.005c.057,0,.113-.009.167-.017s.105-.016.155-.027.1-.024.144-.038a1.394,1.394,0,0,0,.132-.049,1.211,1.211,0,0,0,.121-.06,1.111,1.111,0,0,0,.109-.071,1.024,1.024,0,0,0,.1-.082,1.012,1.012,0,0,0,.086-.093,1.044,1.044,0,0,0,.075-.1,1.106,1.106,0,0,0,.063-.115,1.237,1.237,0,0,0,.052-.126c.015-.044.029-.089.04-.137s.021-.1.029-.148.013-.1.017-.159.006-.111.006-.17c0-.5.006-.984.01-1.47v-2.206a1.369,1.369,0,0,0-.271-.844,1.308,1.308,0,0,0-.194-.2,1.411,1.411,0,0,0-.235-.162,1.567,1.567,0,0,0-.271-.116,1.76,1.76,0,0,0-.3-.068,1.976,1.976,0,0,0-.323-.018c-.046,0-.27.006-.591-.011-.08,0-.166-.01-.258-.017s-.187-.016-.287-.028-.2-.024-.309-.04-.213-.034-.322-.056-.206-.042-.308-.066-.2-.05-.3-.077-.2-.057-.3-.089-.2-.064-.294-.1-.193-.071-.289-.11-.19-.078-.284-.12-.187-.085-.279-.13-.183-.092-.273-.14-.179-.1-.266-.15-.175-.1-.261-.159a8.317,8.317,0,0,1-3.7-5.416,10.109,10.109,0,0,1,0-3.2,8.32,8.32,0,0,1,6.557-6.557,10.105,10.105,0,0,1,3.2,0,8.32,8.32,0,0,1,6.557,6.557,20.218,20.218,0,0,1,.154,3.209v11.609a1.61,1.61,0,0,0,1.61,1.61h3.321a1.607,1.607,0,0,0,1.138-.472,1.607,1.607,0,0,0,.47-1.138l-.018-11.609c0-.889.007-2.333-.088-3.216a14.834,14.834,0,0,0-13.136-13.136,14.951,14.951,0,0,0-1.607-.086Z" transform="translate(-649.664 0)" fill="#bfbfbf" fill-rule="evenodd"/>
    <g id="g73" transform="translate(84.032 -243.935)">
      <path id="path75" d="M-2.814-3.584a3.3,3.3,0,0,1,1.46-.287H.968a1.145,1.145,0,0,1,.988.439,2.527,2.527,0,0,1,.437.97L2.647-.247A11.6,11.6,0,0,1,3.865-1.759a7.28,7.28,0,0,1,1.644-1.28,8.931,8.931,0,0,1,2.23-.889,11.822,11.822,0,0,1,2.977-.334,12.658,12.658,0,0,1,2.92.311A8.766,8.766,0,0,1,16-3.028a8.6,8.6,0,0,1,1.908,1.5A11.414,11.414,0,0,1,19.452.514,7.334,7.334,0,0,1,20.946-1.47,9.287,9.287,0,0,1,23.119-3a11.717,11.717,0,0,1,2.7-.981,13.317,13.317,0,0,1,3.058-.346,10.907,10.907,0,0,1,4.77.988A9.734,9.734,0,0,1,37.085-.63a11.937,11.937,0,0,1,2.081,4.024,16.775,16.775,0,0,1,.7,4.92V23.647a1.794,1.794,0,0,1-.391,1.253,1.452,1.452,0,0,1-1.127.425H34.855a1.648,1.648,0,0,1-1.23-.344,1.83,1.83,0,0,1-.31-1.217V8.33a8.173,8.173,0,0,0-.345-2.366A5.8,5.8,0,0,0,31.9,3.932a5.394,5.394,0,0,0-1.816-1.424,5.828,5.828,0,0,0-2.609-.54,6.068,6.068,0,0,0-2.345.448A5.275,5.275,0,0,0,23.268,3.7a6.09,6.09,0,0,0-1.23,2.021,7.365,7.365,0,0,0-.448,2.63V23.672q0,1.654-1.495,1.653H16.578a1.605,1.605,0,0,1-1.218-.344,1.883,1.883,0,0,1-.3-1.217V8.353a8.262,8.262,0,0,0-.333-2.331,6,6,0,0,0-1.035-2.032,5.2,5.2,0,0,0-1.8-1.447,5.791,5.791,0,0,0-2.621-.552,5.92,5.92,0,0,0-2.115.4,6.241,6.241,0,0,0-1.92,1.161,6.027,6.027,0,0,0-1.414,1.86,5.732,5.732,0,0,0-.575,2.5V23.971a1.3,1.3,0,0,1-.391.976,1.362,1.362,0,0,1-.989.379H-1.929a1.519,1.519,0,0,1-1.115-.356A1.384,1.384,0,0,1-3.4,23.946V-2.515a1.08,1.08,0,0,1,.586-1.069" transform="translate(3.4 4.331)" fill="#bfbfbf"/>
    </g>
    <g id="g77" transform="translate(130.471 -243.935)">
      <path id="path79" d="M0-6.836A1.5,1.5,0,0,1,.35-7.852a1.279,1.279,0,0,1,1.028-.409H5.254a1.433,1.433,0,0,1,.525.106,1.475,1.475,0,0,1,.479.3,1.821,1.821,0,0,1,.35.455,1.15,1.15,0,0,1,.14.56V19.994q0,1.4-1.471,1.4H1.4a1.238,1.238,0,0,1-1.4-1.4Z" transform="translate(0 8.261)" fill="#bfbfbf"/>
    </g>
    <g id="g81" transform="translate(140.393 -243.935)">
      <path id="path83" d="M-22.927-101.22a4.842,4.842,0,0,0,1.194,1.284,8.19,8.19,0,0,0,1.476.89,7.309,7.309,0,0,0,1.443.507,5.178,5.178,0,0,0,1.093.158,9.7,9.7,0,0,0,1.487-.136A6.093,6.093,0,0,0-14.623-99a3.89,3.89,0,0,0,1.285-.947,2.213,2.213,0,0,0,.529-1.521,2.4,2.4,0,0,0-.418-1.465,3.238,3.238,0,0,0-1.127-.935,8.091,8.091,0,0,0-1.622-.62q-.913-.248-1.927-.541a18.912,18.912,0,0,1-4.034-1.521,10.346,10.346,0,0,1-2.738-2.04,7.329,7.329,0,0,1-1.566-2.524,8.771,8.771,0,0,1-.5-3,7.637,7.637,0,0,1,.721-3.336,7.55,7.55,0,0,1,2.028-2.591,9.462,9.462,0,0,1,3.144-1.679,13.1,13.1,0,0,1,4.068-.6,12.759,12.759,0,0,1,2.816.282,9.221,9.221,0,0,1,2.3.845,9.71,9.71,0,0,1,1.995,1.42,21.861,21.861,0,0,1,1.9,2.005,1.254,1.254,0,0,1,.337.789,1,1,0,0,1-.451.767q-.339.27-.8.676t-.913.789a9.55,9.55,0,0,1-.856.654,1.318,1.318,0,0,1-.676.27,1.3,1.3,0,0,1-.969-.586,10.2,10.2,0,0,0-.991-1.025,5.217,5.217,0,0,0-1.038-.722,5.018,5.018,0,0,0-1.17-.428,6.111,6.111,0,0,0-1.375-.146,4.876,4.876,0,0,0-1.273.18,4.242,4.242,0,0,0-1.217.541,3.5,3.5,0,0,0-.924.868A1.875,1.875,0,0,0-20.448-114a1.759,1.759,0,0,0,.461,1.229,4.179,4.179,0,0,0,1.17.879,8.581,8.581,0,0,0,1.541.619q.832.249,1.552.451a28.837,28.837,0,0,1,3.8,1.352,11.615,11.615,0,0,1,2.982,1.859,7.863,7.863,0,0,1,1.946,2.569,8.032,8.032,0,0,1,.7,3.459,8.248,8.248,0,0,1-.831,3.753,8.18,8.18,0,0,1-2.3,2.805,10.555,10.555,0,0,1-3.483,1.758,15.105,15.105,0,0,1-4.38.608,14.177,14.177,0,0,1-2.884-.3,12.262,12.262,0,0,1-2.806-.947,10.738,10.738,0,0,1-2.479-1.645,8.912,8.912,0,0,1-1.9-2.377,2.019,2.019,0,0,1-.338-1.014.873.873,0,0,1,.147-.507,2.047,2.047,0,0,1,.394-.417l2.524-1.938a1.216,1.216,0,0,1,.608-.2.84.84,0,0,1,.564.214,4.673,4.673,0,0,1,.541.575" transform="translate(27.705 122.313)" fill="#bfbfbf"/>
    </g>
    <g id="g85" transform="translate(163.477 -243.935)">
      <path id="path87" d="M-22.925-101.22a4.833,4.833,0,0,0,1.195,1.284,8.155,8.155,0,0,0,1.476.89,7.326,7.326,0,0,0,1.443.507,5.178,5.178,0,0,0,1.093.158,9.7,9.7,0,0,0,1.487-.136A6.082,6.082,0,0,0-14.621-99a3.872,3.872,0,0,0,1.285-.947,2.208,2.208,0,0,0,.53-1.521,2.4,2.4,0,0,0-.418-1.465,3.244,3.244,0,0,0-1.127-.935,8.078,8.078,0,0,0-1.623-.62q-.912-.248-1.927-.541a18.922,18.922,0,0,1-4.034-1.521,10.352,10.352,0,0,1-2.737-2.04,7.334,7.334,0,0,1-1.567-2.524,8.771,8.771,0,0,1-.5-3,7.637,7.637,0,0,1,.721-3.336,7.559,7.559,0,0,1,2.029-2.591,9.464,9.464,0,0,1,3.143-1.679,13.107,13.107,0,0,1,4.068-.6,12.774,12.774,0,0,1,2.817.282,9.216,9.216,0,0,1,2.3.845,9.679,9.679,0,0,1,1.995,1.42,21.677,21.677,0,0,1,1.9,2.005,1.251,1.251,0,0,1,.338.789,1,1,0,0,1-.451.767q-.338.27-.8.676t-.912.789a9.459,9.459,0,0,1-.857.654,1.316,1.316,0,0,1-.677.27,1.3,1.3,0,0,1-.968-.586,10.1,10.1,0,0,0-.991-1.025,5.212,5.212,0,0,0-1.037-.722,5.01,5.01,0,0,0-1.171-.428,6.1,6.1,0,0,0-1.375-.146,4.868,4.868,0,0,0-1.273.18A4.241,4.241,0,0,0-19.15-116a3.512,3.512,0,0,0-.924.868A1.876,1.876,0,0,0-20.446-114a1.757,1.757,0,0,0,.461,1.229,4.179,4.179,0,0,0,1.17.879,8.563,8.563,0,0,0,1.541.619q.832.249,1.553.451a28.845,28.845,0,0,1,3.8,1.352,11.61,11.61,0,0,1,2.981,1.859,7.841,7.841,0,0,1,1.946,2.569,8.019,8.019,0,0,1,.7,3.459,8.26,8.26,0,0,1-.83,3.753,8.184,8.184,0,0,1-2.3,2.805,10.559,10.559,0,0,1-3.484,1.758,15.1,15.1,0,0,1-4.38.608,14.181,14.181,0,0,1-2.884-.3,12.284,12.284,0,0,1-2.806-.947,10.767,10.767,0,0,1-2.479-1.645,8.938,8.938,0,0,1-1.9-2.377,2.017,2.017,0,0,1-.337-1.014.876.876,0,0,1,.146-.507,2.019,2.019,0,0,1,.395-.417l2.523-1.938a1.22,1.22,0,0,1,.609-.2.839.839,0,0,1,.563.214,4.691,4.691,0,0,1,.541.575" transform="translate(27.702 122.313)" fill="#bfbfbf"/>
    </g>
  </g>
</svg>
