<svg xmlns="http://www.w3.org/2000/svg" xmlns:xlink="http://www.w3.org/1999/xlink" width="216.071" height="46.081" viewBox="0 0 216.071 46.081">
  <defs>
    <clipPath id="clip-path">
      <rect width="216.071" height="46.081" fill="none"/>
    </clipPath>
  </defs>
  <g id="Microsoft_logo__2012_" data-name="Microsoft_logo_(2012)" clip-path="url(#clip-path)">
    <g id="Microsoft_logo__2012_2" data-name="Microsoft_logo_(2012)" transform="translate(0)">
      <path id="Path_1" data-name="Path 1" d="M123.589,13.248V40.9h-4.8V19.2h-.064l-8.576,21.7h-3.2L98.18,19.2h-.064V40.9H93.7V13.248h6.912l7.936,20.481h.128l8.384-20.481h6.528Zm3.968,2.112a2.434,2.434,0,0,1,.832-1.92,2.862,2.862,0,0,1,1.984-.768,2.8,2.8,0,0,1,2.048.768,2.661,2.661,0,0,1,.832,1.92,2.434,2.434,0,0,1-.832,1.92,2.907,2.907,0,0,1-2.048.768,2.652,2.652,0,0,1-1.984-.768A2.9,2.9,0,0,1,127.557,15.36Zm5.184,5.7V40.9h-4.672V21.056h4.672ZM146.886,37.5a5.392,5.392,0,0,0,2.3-.512,10.111,10.111,0,0,0,2.3-1.28v4.352a8.166,8.166,0,0,1-2.56.96,15.749,15.749,0,0,1-3.136.32,9.4,9.4,0,0,1-7.1-2.752,9.55,9.55,0,0,1-2.752-7.04,11.294,11.294,0,0,1,2.816-7.872c1.856-2.048,4.48-3.072,7.936-3.072a11.78,11.78,0,0,1,2.624.32,8.721,8.721,0,0,1,2.112.768v4.48a9.3,9.3,0,0,0-2.176-1.216,7.353,7.353,0,0,0-2.3-.448,5.837,5.837,0,0,0-4.48,1.792,6.714,6.714,0,0,0-1.664,4.864,6.4,6.4,0,0,0,1.664,4.672A5.986,5.986,0,0,0,146.886,37.5Zm17.857-16.769a5.173,5.173,0,0,1,1.024.064,6.643,6.643,0,0,1,.768.192v4.736a2.873,2.873,0,0,0-1.088-.512,6.567,6.567,0,0,0-1.728-.256,3.579,3.579,0,0,0-2.88,1.472,7.068,7.068,0,0,0-1.216,4.48V40.9H154.95V21.056h4.672v3.136h.064a6.029,6.029,0,0,1,1.92-2.56A5.639,5.639,0,0,1,164.742,20.736ZM166.79,31.3a11.056,11.056,0,0,1,2.752-7.808,10.183,10.183,0,0,1,7.68-2.88,9.408,9.408,0,0,1,7.232,2.752,10.568,10.568,0,0,1,2.624,7.488,10.839,10.839,0,0,1-2.752,7.68,9.982,9.982,0,0,1-7.552,2.88,9.859,9.859,0,0,1-7.3-2.688A10.271,10.271,0,0,1,166.79,31.3Zm4.864-.192a6.979,6.979,0,0,0,1.408,4.736,5.116,5.116,0,0,0,4.032,1.664,4.659,4.659,0,0,0,3.9-1.664,7.475,7.475,0,0,0,1.344-4.864A7.719,7.719,0,0,0,181,26.112a5.342,5.342,0,0,0-7.808.064A7.011,7.011,0,0,0,171.654,31.1Zm22.4-4.8a2.031,2.031,0,0,0,.64,1.6,10.947,10.947,0,0,0,2.816,1.408,9.759,9.759,0,0,1,3.9,2.5,5.185,5.185,0,0,1,1.152,3.392,5.374,5.374,0,0,1-2.176,4.48,9.008,9.008,0,0,1-5.824,1.664,15.163,15.163,0,0,1-2.752-.32,11.076,11.076,0,0,1-2.56-.768V35.649a11.183,11.183,0,0,0,2.752,1.408,8.627,8.627,0,0,0,2.688.512,4.3,4.3,0,0,0,2.3-.448,1.571,1.571,0,0,0,.768-1.472A2.253,2.253,0,0,0,197,33.985a11.819,11.819,0,0,0-2.944-1.536,8.8,8.8,0,0,1-3.648-2.432,5.441,5.441,0,0,1-1.088-3.456,5.455,5.455,0,0,1,2.112-4.416,8.454,8.454,0,0,1,5.5-1.728,10.149,10.149,0,0,1,2.3.256c.832.192,1.6.384,2.176.576v4.544a13.787,13.787,0,0,0-2.176-1.088,6.773,6.773,0,0,0-2.432-.448,3.569,3.569,0,0,0-2.048.512A2.044,2.044,0,0,0,194.055,26.3Zm10.5,4.992a11.056,11.056,0,0,1,2.752-7.808,10.183,10.183,0,0,1,7.68-2.88,9.408,9.408,0,0,1,7.232,2.752,10.568,10.568,0,0,1,2.624,7.488,10.839,10.839,0,0,1-2.752,7.68,9.982,9.982,0,0,1-7.552,2.88,9.859,9.859,0,0,1-7.3-2.688A10.549,10.549,0,0,1,204.551,31.3Zm4.864-.192a6.979,6.979,0,0,0,1.408,4.736,5.116,5.116,0,0,0,4.032,1.664,4.659,4.659,0,0,0,3.9-1.664,7.475,7.475,0,0,0,1.344-4.864,7.719,7.719,0,0,0-1.344-4.864,5.342,5.342,0,0,0-7.808.064A7.329,7.329,0,0,0,209.416,31.1ZM240.393,24.9h-6.976v16H228.68v-16h-3.328v-3.84h3.328V18.3a6.9,6.9,0,0,1,7.232-7.1c.576,0,1.088.064,1.536.064a3.057,3.057,0,0,1,1.152.256v4.032a7.844,7.844,0,0,0-.832-.32,4.255,4.255,0,0,0-1.344-.192,2.889,2.889,0,0,0-2.24.9,4.08,4.08,0,0,0-.768,2.688v2.368h6.976v-4.48l4.672-1.408v5.888H249.8v3.84h-4.736v9.28a4.26,4.26,0,0,0,.64,2.56,2.664,2.664,0,0,0,2.112.768,3.159,3.159,0,0,0,.96-.192,3.345,3.345,0,0,0,.96-.448v3.84a4.464,4.464,0,0,1-1.472.448,11.091,11.091,0,0,1-2.048.192,5.782,5.782,0,0,1-4.416-1.536,6.766,6.766,0,0,1-1.472-4.736l.064-10.112Z" transform="translate(-33.73 -4.032)" fill="#bfbfbf"/>
      <g id="Group_1" data-name="Group 1">
        <rect id="Rectangle_3" data-name="Rectangle 3" width="21.889" height="21.889" fill="#bfbfbf"/>
        <rect id="Rectangle_4" data-name="Rectangle 4" width="21.889" height="21.889" transform="translate(24.193)" fill="#bfbfbf"/>
        <rect id="Rectangle_5" data-name="Rectangle 5" width="21.889" height="21.889" transform="translate(0 24.193)" fill="#bfbfbf"/>
        <rect id="Rectangle_6" data-name="Rectangle 6" width="21.889" height="21.889" transform="translate(24.193 24.193)" fill="#bfbfbf"/>
      </g>
    </g>
  </g>
</svg>
