<svg xmlns="http://www.w3.org/2000/svg" width="221.508" height="46.081" viewBox="0 0 221.508 46.081">
  <g id="passport-labs-inc-logo-vector" transform="translate(131.5 -212.2)">
    <path id="Path_3" data-name="Path 3" d="M-66.586,218.957v19.717a.568.568,0,0,1-.554.554H-79.546a.568.568,0,0,1-.554-.554h0V212.754a.568.568,0,0,1,.554-.554h6.2a6.76,6.76,0,0,1,6.757,6.757" transform="translate(-32.421)" fill="#bfbfbf"/>
    <path id="Path_4" data-name="Path 4" d="M-118.577,225.777h-12.407a.5.5,0,0,1-.517-.517h0V212.854a.561.561,0,0,1,.517-.554h12.407a.537.537,0,0,1,.517.554V225.26a.5.5,0,0,1-.517.517" transform="translate(0 -0.063)" fill="#bfbfbf"/>
    <path id="Path_5" data-name="Path 5" d="M-131.5,284.071V264.354a.568.568,0,0,1,.554-.554h12.407a.536.536,0,0,1,.517.554v25.921a.561.561,0,0,1-.517.554h-6.2a6.784,6.784,0,0,1-6.757-6.757" transform="translate(0 -32.547)" fill="#bfbfbf"/>
    <path id="Path_6" data-name="Path 6" d="M-66.586,307.157a6.76,6.76,0,0,1-6.757,6.757,6.76,6.76,0,0,1-6.757-6.757,6.76,6.76,0,0,1,6.757-6.757h0a6.76,6.76,0,0,1,6.757,6.757h0" transform="translate(-32.421 -55.633)" fill="#bfbfbf"/>
    <path id="Path_7" data-name="Path 7" d="M20.57,250.7H15.917V239.732H20.57c3.471,0,4.8,2.732,4.8,5.5C25.333,248,24,250.7,20.57,250.7m.7-16.1H10.231a.3.3,0,0,0-.332.3h0v26.29a3.01,3.01,0,0,0,2.954,3.065H15.88v-8.382h5.539c6.092,0,10.08-4.8,10.08-10.56s-3.988-10.634-10.265-10.634" transform="translate(-89.188 -14.129)" fill="#bfbfbf"/>
    <path id="Path_8" data-name="Path 8" d="M89.183,269.348a9.8,9.8,0,0,1-4.911,1.588c-1.809,0-3.1-.886-3.1-2.806,0-1.662,1.182-2.622,3.692-2.622H89.22v3.84ZM85.934,252.4a47.016,47.016,0,0,0-8.493.886.313.313,0,0,0-.258.3v4.209a.3.3,0,0,0,.332.3h.074a36.495,36.495,0,0,1,6.942-.923c3.582.074,4.689,1.182,4.689,3.028v1.477H83.866c-5.5,0-8.566,2.659-8.566,6.9,0,4.8,3.1,7.2,7.016,7.2a12.745,12.745,0,0,0,7.2-2.659H89.7a2.836,2.836,0,0,0,2.7,2.363h2.289a.291.291,0,0,0,.3-.3h0V260.6C95.018,255.1,91.547,252.4,85.934,252.4Z" transform="translate(-130.441 -25.356)" fill="#bfbfbf"/>
    <path id="Path_9" data-name="Path 9" d="M149.354,261.594c-2.4-.406-4.246-.775-4.246-2.252s1.292-2.031,4.32-2.031a35.22,35.22,0,0,1,5.576.554.3.3,0,0,0,.369-.258v-.037l.185-4.32a.355.355,0,0,0-.258-.332,42.45,42.45,0,0,0-6.5-.517c-5.649,0-9.6,1.883-9.6,7.274,0,4.874,3.729,5.982,6.868,6.609,2.622.443,4.8.775,4.8,2.4s-1.182,2.4-3.951,2.4a52.807,52.807,0,0,1-7.2-.7.33.33,0,0,0-.369.3v4.542a.285.285,0,0,0,.258.3,64.417,64.417,0,0,0,7.533.443c6.2,0,9.6-2.4,9.6-7.533,0-5.28-3.988-6.166-7.422-6.794" transform="translate(-170.746 -25.356)" fill="#bfbfbf"/>
    <path id="Path_10" data-name="Path 10" d="M205.154,261.594c-2.4-.406-4.246-.775-4.246-2.252s1.255-2.031,4.32-2.031a35.657,35.657,0,0,1,5.576.554.331.331,0,0,0,.369-.258v-.037l.185-4.32a.355.355,0,0,0-.258-.332,42.45,42.45,0,0,0-6.5-.517c-5.649,0-9.6,1.883-9.6,7.274,0,4.874,3.729,5.982,6.868,6.609,2.622.443,4.8.775,4.8,2.4s-1.182,2.4-3.951,2.4a52.807,52.807,0,0,1-7.2-.7.33.33,0,0,0-.369.3v4.542a.314.314,0,0,0,.258.258,64.417,64.417,0,0,0,7.533.443c6.2,0,9.6-2.4,9.6-7.533,0-5.28-3.988-6.166-7.385-6.794" transform="translate(-205.943 -25.356)" fill="#bfbfbf"/>
    <path id="Path_11" data-name="Path 11" d="M261.026,271.073a12.915,12.915,0,0,1-3.766-.554V259.626a9.848,9.848,0,0,1,5.169-2.1c2.4,0,4.062,1.809,4.062,6.351,0,4.8-1.772,7.2-5.5,7.2m3.323-18.573a12.065,12.065,0,0,0-7.089,2.659,2.214,2.214,0,0,0-2.179-2.215H251.8a.291.291,0,0,0-.3.3h0V280.6a2.978,2.978,0,0,0,2.991,2.991h2.474a.326.326,0,0,0,.332-.3v-8.049a20.976,20.976,0,0,0,4.542.591c5.982,0,10.634-3.36,10.634-12.259,0-7.754-3.766-11.077-8.086-11.077" transform="translate(-241.58 -25.42)" fill="#bfbfbf"/>
    <path id="Path_12" data-name="Path 12" d="M329.21,270.873c-3.877,0-5.539-2.474-5.539-6.831s1.662-6.794,5.539-6.794,5.5,2.474,5.5,6.794-1.625,6.831-5.5,6.831m0-18.573c-6.425,0-11.41,3.582-11.41,11.742s5.022,11.742,11.41,11.742,11.446-3.655,11.446-11.742S335.634,252.3,329.21,252.3" transform="translate(-283.4 -25.293)" fill="#bfbfbf"/>
    <path id="Path_13" data-name="Path 13" d="M394.865,257v-1.44a2.222,2.222,0,0,0-2.215-2.215H389.7a.291.291,0,0,0-.3.3v19.164a2.978,2.978,0,0,0,2.991,2.991h2.474a.326.326,0,0,0,.332-.3V261.656a37.222,37.222,0,0,1,7.754-2.474.313.313,0,0,0,.258-.3v-5.354a.331.331,0,0,0-.332-.332h0c-3.323.3-5.723,2.363-8.013,3.8" transform="translate(-328.562 -25.861)" fill="#bfbfbf"/>
    <path id="Path_14" data-name="Path 14" d="M436.8,262.787c0,4.468,2.659,5.428,5.576,5.428a31,31,0,0,0,5.834-.628.313.313,0,0,0,.258-.3v-4.246a.331.331,0,0,0-.332-.332h-.074a13.205,13.205,0,0,1-2.7.406c-1.477,0-2.806-.517-2.806-2.4v-10.56h5.612a.291.291,0,0,0,.3-.3h0V245.58a.291.291,0,0,0-.3-.3H442.6v-2.806a2.247,2.247,0,0,0-2.252-2.179h-3.212a.3.3,0,0,0-.3.332Z" transform="translate(-358.46 -17.724)" fill="#bfbfbf"/>
  </g>
</svg>
