<svg width="27" height="27" viewBox="0 0 27 27" fill="none" xmlns="http://www.w3.org/2000/svg">
<path d="M4.5 6.75C4.5 6.45163 4.61853 6.16548 4.82951 5.95451C5.04048 5.74353 5.32663 5.625 5.625 5.625H21.375C21.6734 5.625 21.9595 5.74353 22.1705 5.95451C22.3815 6.16548 22.5 6.45163 22.5 6.75C22.5 7.04837 22.3815 7.33452 22.1705 7.54549C21.9595 7.75647 21.6734 7.875 21.375 7.875H5.625C5.32663 7.875 5.04048 7.75647 4.82951 7.54549C4.61853 7.33452 4.5 7.04837 4.5 6.75ZM4.5 20.25C4.5 19.9516 4.61853 19.6655 4.82951 19.4545C5.04048 19.2435 5.32663 19.125 5.625 19.125H21.375C21.6734 19.125 21.9595 19.2435 22.1705 19.4545C22.3815 19.6655 22.5 19.9516 22.5 20.25C22.5 20.5484 22.3815 20.8345 22.1705 21.0455C21.9595 21.2565 21.6734 21.375 21.375 21.375H5.625C5.32663 21.375 5.04048 21.2565 4.82951 21.0455C4.61853 20.8345 4.5 20.5484 4.5 20.25ZM5.625 12.375C5.32663 12.375 5.04048 12.4935 4.82951 12.7045C4.61853 12.9155 4.5 13.2016 4.5 13.5C4.5 13.7984 4.61853 14.0845 4.82951 14.2955C5.04048 14.5065 5.32663 14.625 5.625 14.625H14.625C14.9234 14.625 15.2095 14.5065 15.4205 14.2955C15.6315 14.0845 15.75 13.7984 15.75 13.5C15.75 13.2016 15.6315 12.9155 15.4205 12.7045C15.2095 12.4935 14.9234 12.375 14.625 12.375H5.625Z" fill="black"/>
</svg>
